<svg width="500" height="400" viewBox="0 0 500 400" fill="none" xmlns="http://www.w3.org/2000/svg">
  <!-- Base platform -->
  <ellipse cx="250" cy="350" rx="200" ry="30" fill="#E0E0E0" />
  
  <!-- Books -->
  <!-- Book 1 - Tall orange book -->
  <rect x="120" y="150" width="60" height="200" rx="2" fill="#FF9F43" />
  <rect x="120" y="150" width="60" height="200" rx="2" stroke="#333" stroke-width="1" />
  <line x1="130" y1="170" x2="170" y2="170" stroke="#333" stroke-width="1" />
  <line x1="130" y1="190" x2="170" y2="190" stroke="#333" stroke-width="1" />
  <text x="150" y="230" font-family="Arial" font-size="10" fill="#333" text-anchor="middle">BOOK</text>
  <text x="150" y="245" font-family="Arial" font-size="10" fill="#333" text-anchor="middle">MOCK</text>
  
  <!-- Book 2 - Medium blue book -->
  <rect x="180" y="180" width="80" height="170" rx="2" fill="#54A0FF" />
  <rect x="180" y="180" width="80" height="170" rx="2" stroke="#333" stroke-width="1" />
  <line x1="190" y1="200" x2="250" y2="200" stroke="#333" stroke-width="1" />
  <text x="220" y="250" font-family="Arial" font-size="14" fill="#333" text-anchor="middle">BOOK</text>
  <text x="220" y="270" font-family="Arial" font-size="14" fill="#333" text-anchor="middle">MOCKUP</text>
  
  <!-- Book 3 - Featured tall book -->
  <rect x="260" y="120" width="100" height="230" rx="2" fill="#FFFFFF" />
  <rect x="260" y="120" width="100" height="230" rx="2" stroke="#333" stroke-width="1" />
  <text x="310" y="200" font-family="Arial" font-size="20" fill="#333" font-weight="bold" text-anchor="middle">DOWNLOAD</text>
  <text x="310" y="225" font-family="Arial" font-size="16" fill="#333" text-anchor="middle">FREE BOOK</text>
  <text x="310" y="250" font-family="Arial" font-size="18" fill="#333" text-anchor="middle">MOCKUP</text>
  <text x="310" y="275" font-family="Arial" font-size="14" fill="#333" text-anchor="middle">FROM</text>
  <text x="310" y="300" font-family="Arial" font-size="16" fill="#333" font-weight="bold" text-anchor="middle">IS.GRAPHICS</text>
  
  <!-- Book 4 - Short yellow book -->
  <rect x="360" y="210" width="70" height="140" rx="2" fill="#FECA57" />
  <rect x="360" y="210" width="70" height="140" rx="2" stroke="#333" stroke-width="1" />
  <text x="395" y="280" font-family="Arial" font-size="12" fill="#333" text-anchor="middle" transform="rotate(-90, 395, 280)">POCKET BOOK</text>
</svg> 